{
  "source": "C:\\Users\\Peter\\Desktop\\stuff\\MIUN\\quantitative_research\\video_compression\\videos\\BVI-HD\\BVI-HD_CDVL_videos\\ORIG\\Music_1920x1080_30fps.mp4",
  "output": "C:\\Users\\Peter\\Desktop\\stuff\\MIUN\\quantitative_research\\video_compression\\compressed_videos\\BVI-HD\\h264\\4\\Music_1920x1080_30fps_h264.mp4",
  "codec": "h264",
  "ok": "Input #0, mov,mp4,m4a,3gp,3g2,mj2, from 'C:\\Users\\Peter\\Desktop\\stuff\\MIUN\\quantitative_research\\video_compression\\videos\\BVI-HD\\BVI-HD_CDVL_videos\\ORIG\\Music_1920x1080_30fps.mp4':\n  Metadata:\n    major_brand     : isom\n    minor_version   : 512\n    compatible_brands: isomiso2avc1mp41\n    encoder         : Lavf54.28.101\n  Duration: 00:00:05.00, start: 0.000000, bitrate: 192710 kb/s\n  Stream #0:0[0x1](und): Video: h264 (High 4:4:4 Predictive) (avc1 / 0x31637661), yuv420p(progressive), 1920x1080, 192707 kb/s, 30 fps, 30 tbr, 30 tbn (default)\n    Metadata:\n      handler_name    : VideoHandler\n      vendor_id       : [0][0][0][0]\n[out#0/mp4 @ 0000011ba3efdc80] Codec AVOption b:a (set bitrate (in bits/s)) has not been used for any stream. The most likely reason is either wrong type (e.g. a video option with no video streams) or that it is a private option of some decoder which was not actually used for any stream.\nStream mapping:\n  Stream #0:0 -> #0:0 (h264 (native) -> h264 (libx264))\nPress [q] to stop, [?] for help\n[libx264 @ 0000011ba3f700c0] using cpu capabilities: MMX2 SSE2Fast SSSE3 SSE4.2 AVX FMA3 BMI2 AVX2\n[libx264 @ 0000011ba3f700c0] profile High, level 5.0, 4:2:0, 8-bit\n[libx264 @ 0000011ba3f700c0] 264 - core 165 r3222 b35605a - H.264/MPEG-4 AVC codec - Copyleft 2003-2025 - http://www.videolan.org/x264.html - options: cabac=1 ref=5 deblock=1:0:0 analyse=0x3:0x113 me=hex subme=8 psy=1 psy_rd=1.00:0.00 mixed_ref=1 me_range=16 chroma_me=1 trellis=2 8x8dct=1 cqm=0 deadzone=21,11 fast_pskip=1 chroma_qp_offset=-2 threads=18 lookahead_threads=3 sliced_threads=0 nr=0 decimate=1 interlaced=0 bluray_compat=0 constrained_intra=0 bframes=3 b_pyramid=2 b_adapt=1 b_bias=0 direct=3 weightb=1 open_gop=0 weightp=2 keyint=250 keyint_min=25 scenecut=40 intra_refresh=0 rc_lookahead=50 rc=cbr mbtree=1 bitrate=4000 ratetol=1.0 qcomp=0.60 qpmin=0 qpmax=69 qpstep=4 vbv_maxrate=4000 vbv_bufsize=4000 nal_hrd=none filler=0 ip_ratio=1.40 aq=1:1.00\nOutput #0, mp4, to 'C:\\Users\\Peter\\Desktop\\stuff\\MIUN\\quantitative_research\\video_compression\\compressed_videos\\BVI-HD\\h264\\4\\Music_1920x1080_30fps_h264.mp4':\n  Metadata:\n    major_brand     : isom\n    minor_version   : 512\n    compatible_brands: isomiso2avc1mp41\n    encoder         : Lavf62.3.100\n  Stream #0:0(und): Video: h264 (avc1 / 0x31637661), yuv420p(tv, progressive), 1920x1080, q=2-31, 4000 kb/s, 30 fps, 15360 tbn (default)\n    Metadata:\n      encoder         : Lavc62.11.100 libx264\n      handler_name    : VideoHandler\n      vendor_id       : [0][0][0][0]\n    Side data:\n      cpb: bitrate max/min/avg: 4000000/0/4000000 buffer size: 4000000 vbv_delay: N/A\nframe=    0 fps=0.0 q=0.0 size=       0KiB time=N/A bitrate=N/A speed=N/A elapsed=0:00:00.51    \nframe=    0 fps=0.0 q=0.0 size=       0KiB time=N/A bitrate=N/A speed=N/A elapsed=0:00:01.07    \nframe=    0 fps=0.0 q=0.0 size=       0KiB time=N/A bitrate=N/A speed=N/A elapsed=0:00:01.63    \nframe=    9 fps=4.1 q=34.0 size=       0KiB time=00:00:00.23 bitrate=   1.6kbits/s speed=0.107x elapsed=0:00:02.17    \nframe=   16 fps=5.9 q=32.0 size=       0KiB time=00:00:00.46 bitrate=   0.8kbits/s speed=0.173x elapsed=0:00:02.70    \nframe=   33 fps= 10 q=33.0 size=     256KiB time=00:00:01.03 bitrate=2029.9kbits/s speed=0.319x elapsed=0:00:03.24    \nframe=   53 fps= 14 q=32.0 size=     512KiB time=00:00:01.63 bitrate=2568.2kbits/s speed=0.427x elapsed=0:00:03.82    \nframe=   78 fps= 18 q=31.0 size=    1024KiB time=00:00:02.53 bitrate=3311.4kbits/s speed=0.577x elapsed=0:00:04.38    \nframe=  103 fps= 21 q=31.0 size=    1280KiB time=00:00:03.36 bitrate=3114.7kbits/s speed=0.678x elapsed=0:00:04.96    \nframe=  125 fps= 23 q=30.0 size=    1792KiB time=00:00:04.06 bitrate=3609.9kbits/s speed=0.741x elapsed=0:00:05.48    \n[mp4 @ 0000011ba4363bc0] Starting second pass: moving the moov atom to the beginning of the file\n[out#0/mp4 @ 0000011ba3efdc80] video:2272KiB audio:0KiB subtitle:0KiB other streams:0KiB global headers:0KiB muxing overhead: 0.100362%\nframe=  150 fps= 25 q=-1.0 Lsize=    2274KiB time=00:00:04.93 bitrate=3776.6kbits/s speed=0.82x elapsed=0:00:06.01    \n[libx264 @ 0000011ba3f700c0] frame I:3     Avg QP:26.95  size: 32361\n[libx264 @ 0000011ba3f700c0] frame P:70    Avg QP:28.77  size: 19436\n[libx264 @ 0000011ba3f700c0] frame B:77    Avg QP:30.87  size: 11275\n[libx264 @ 0000011ba3f700c0] consecutive B-frames: 31.3%  0.0%  2.0% 66.7%\n[libx264 @ 0000011ba3f700c0] mb I  I16..4: 62.2% 35.1%  2.7%\n[libx264 @ 0000011ba3f700c0] mb P  I16..4: 23.2% 13.0%  0.4%  P16..4: 29.7%  2.9%  2.6%  0.0%  0.0%    skip:28.3%\n[libx264 @ 0000011ba3f700c0] mb B  I16..4:  0.6%  1.8%  0.1%  B16..8: 34.5%  4.6%  0.5%  direct: 1.7%  skip:56.3%  L0:47.1% L1:49.6% BI: 3.3%\n[libx264 @ 0000011ba3f700c0] 8x8 transform intra:37.7% inter:90.6%\n[libx264 @ 0000011ba3f700c0] direct mvs  spatial:98.7% temporal:1.3%\n[libx264 @ 0000011ba3f700c0] coded y,uvDC,uvAC intra: 17.9% 52.6% 5.3% inter: 7.9% 18.7% 0.2%\n[libx264 @ 0000011ba3f700c0] i16 v,h,dc,p: 21% 15%  7% 57%\n[libx264 @ 0000011ba3f700c0] i8 v,h,dc,ddl,ddr,vr,hd,vl,hu:  9%  4%  8% 11% 18% 17% 12% 12%  9%\n[libx264 @ 0000011ba3f700c0] i4 v,h,dc,ddl,ddr,vr,hd,vl,hu: 14%  5%  6% 10% 17% 16% 12% 10% 10%\n[libx264 @ 0000011ba3f700c0] i8c dc,h,v,p: 34% 21% 14% 31%\n[libx264 @ 0000011ba3f700c0] Weighted P-Frames: Y:0.0% UV:0.0%\n[libx264 @ 0000011ba3f700c0] ref P L0: 49.6% 10.7% 18.0%  9.4% 10.1%  2.2%\n[libx264 @ 0000011ba3f700c0] ref B L0: 77.4% 13.2%  6.4%  2.9%\n[libx264 @ 0000011ba3f700c0] ref B L1: 94.6%  5.4%\n[libx264 @ 0000011ba3f700c0] kb/s:3721.30\n",
  "seconds": 6.316301107406616,
  "probe_out": {}
}